<?xml version="1.0" encoding="utf-8"?>
<!-- Generator: Adobe Illustrator 26.0.0, SVG Export Plug-In . SVG Version: 6.00 Build 0)  -->
<svg version="1.1" id="Layer_1" xmlns:xodm="http://www.corel.com/coreldraw/odm/2003"
	 xmlns="http://www.w3.org/2000/svg" xmlns:xlink="http://www.w3.org/1999/xlink" x="0px" y="0px" viewBox="0 0 345.1 237"
	 style="enable-background:new 0 0 345.1 237;" xml:space="preserve">
<style type="text/css">
	.st0{fill:#E5D1D1;}
	.st1{font-family:'Nominee-Bold';}
	.st2{font-size:46.267px;}
</style>
<g id="Layer_x0020_1">
	<path class="st0" d="M208.4,81.5c0,0.2,0,0.3,0,0.3c0,0.2,0,0.3,0,0.5c0,0.3,0,0.5,0,0.6v0.2c0,0.3,0,0.5,0,0.7c0,0.6,0,1.2,0,1.8
		V110l41.5-26.7l-41.5-26.7V81.5L208.4,81.5z M204.4,81.9c-0.3-0.8,0-25.8,0-28.9c0-0.4,0.1-0.8,0.3-1.2c0.6-0.9,1.8-1.2,2.8-0.6
		l47.1,30.3c0.2,0.2,0.5,0.4,0.6,0.6c0.6,0.9,0.3,2.2-0.6,2.8l-47.2,30.4v0c-0.3,0.2-0.7,0.3-1.1,0.3c-1.1,0-2-0.9-2-2
		c0-9.8-0.6-20.4,0-30.1c0-0.1,0-0.2,0-0.2v-0.3c0-0.2,0-0.3,0-0.4c0-0.1,0-0.3,0-0.4h0l0-0.2L204.4,81.9L204.4,81.9z"/>
	<path class="st0" d="M172.5,81.9L172.5,81.9c0,0.1,0,0.2,0,0.3c0,0.2,0,0.3,0,0.4c0,0.1,0,0.2,0,0.4v0.2c0,3.2-0.3,6.3-0.9,9.3
		c-0.6,3.1-1.5,6-2.7,8.8c-1.2,2.9-2.6,5.6-4.4,8.1c-1.7,2.6-3.7,5-5.9,7.2c-2.2,2.2-4.6,4.2-7.2,5.9c-2.6,1.7-5.3,3.2-8.1,4.4
		c-2.8,1.2-5.8,2.1-8.8,2.7c-3,0.6-6.1,0.9-9.3,0.9c-6.4,0-12.5-1.3-18.1-3.6c-5.8-2.4-11-5.9-15.4-10.3c-2.2-2.2-4.2-4.6-5.9-7.2
		c-1.7-2.6-3.2-5.3-4.4-8.1c-1.2-2.8-2.1-5.8-2.7-8.8c-0.6-3-0.9-6.1-0.9-9.3s0.3-6.3,0.9-9.3c0.6-3.1,1.5-6,2.7-8.8
		c1.2-2.9,2.6-5.6,4.4-8.1c1.7-2.6,3.7-5,5.9-7.2c2.2-2.2,4.6-4.2,7.2-5.9c2.6-1.7,5.3-3.2,8.1-4.4c2.8-1.2,5.7-2,8.7-2.6
		c2.9-0.6,5.9-0.9,9-0.9c0.3,0,0.6,0,0.9,0.2c1,0.4,1.5,1.6,1.1,2.6L110.5,77c-0.8,2-1.3,4.1-1.3,6.1c0,2.1,0.4,4.2,1.2,6.1
		c0.8,1.9,1.9,3.7,3.4,5.2c1.4,1.5,3.2,2.7,5.1,3.5c2,0.8,4.1,1.3,6.1,1.3c2.1,0,4.2-0.4,6.1-1.2c1.9-0.8,3.7-1.9,5.2-3.4
		c1.5-1.4,2.7-3.2,3.5-5.1l24.8-58.2c0.8-2,1.3-4.1,1.3-6.1c0-2.1-0.4-4.2-1.2-6.1s-1.9-3.7-3.4-5.2c-1.4-1.5-3.2-2.7-5.1-3.5
		c-1.2-0.5-2.4-1-3.7-1.5c-1.3-0.5-2.5-0.9-3.8-1.3c-1.2-0.4-2.5-0.7-3.8-1.1c-1.4-0.3-2.7-0.6-3.9-0.9c-1.3-0.3-2.6-0.5-4-0.7
		c-1.4-0.2-2.7-0.4-3.9-0.5c-1.4-0.1-2.8-0.3-4.1-0.3C127.7,4,126.5,4,125.2,4c-5.3,0-10.4,0.5-15.4,1.5c-5.1,1-10.1,2.5-14.8,4.5
		c-4.9,2-9.5,4.5-13.7,7.3c-4.3,2.9-8.3,6.2-12,9.9c-3.7,3.7-7,7.7-9.9,12c-2.9,4.3-5.3,8.9-7.3,13.7c-2,4.7-3.5,9.7-4.5,14.8
		c-1,5-1.5,10.2-1.5,15.4c0,10.7,2.1,21,6,30.3c4,9.7,9.9,18.4,17.2,25.7c3.7,3.7,7.7,7,12,9.9c4.3,2.9,8.9,5.3,13.7,7.3
		c4.7,2,9.7,3.5,14.8,4.5c5,1,10.2,1.5,15.4,1.5s10.4-0.5,15.4-1.5c5.1-1,10.1-2.5,14.8-4.5c2.5-1,5-2.2,7.4-3.5
		c2.4-1.3,4.7-2.7,6.9-4.2c0.2-0.2,0.5-0.3,0.7-0.3c1.1-0.2,2.1,0.4,2.4,1.5l0.1,0.6c0.2,0.8,0.5,1.6,0.8,2.4
		c0.3,0.8,0.7,1.5,1.2,2.2c1.2,1.8,2.6,3.3,4.3,4.5c1.7,1.2,3.7,2,5.7,2.5c2,0.4,4.2,0.5,6.2,0.1c2-0.4,4-1.1,5.8-2.3l98.2-63.2
		c0.5-0.3,1-0.6,1.4-1c0.4-0.3,0.9-0.7,1.3-1.1c0.4-0.4,0.8-0.9,1.2-1.3c0.4-0.4,0.7-0.9,1-1.4c1.2-1.8,1.9-3.8,2.3-5.8
		c0.4-2.1,0.3-4.2-0.1-6.2c-0.4-2-1.3-4-2.5-5.7c-1.2-1.7-2.7-3.2-4.5-4.3L197.3,6.7c-0.1,0-0.1-0.1-0.2-0.1c-0.5-0.4-1.1-0.7-1.7-1
		c-0.6-0.3-1.2-0.5-1.9-0.8c-0.2-0.1-0.3-0.1-0.5-0.2c-0.7-0.2-1.5-0.4-2.3-0.5c-0.7-0.1-1.5-0.2-2.2-0.2c-2.2,0-4.2,0.4-6.1,1.2
		c-1.9,0.8-3.7,2-5.2,3.5c-1.5,1.5-2.7,3.2-3.5,5.2c-0.7,1.8-1.2,3.7-1.2,5.7c0,0.1,0,0.2,0,0.4v61.7L172.5,81.9L172.5,81.9z
		 M168.5,81.9c0-0.1,0-0.1,0-0.2V32.3l-0.2,0.5l-24.8,58.2c-1.1,2.5-2.6,4.6-4.4,6.4c-1.9,1.9-4.1,3.3-6.5,4.3c-2.4,1-5,1.5-7.6,1.4
		c-2.6,0-5.1-0.5-7.6-1.6c-2.5-1.1-4.6-2.6-6.4-4.4c-1.9-1.9-3.3-4.1-4.3-6.5c-1-2.4-1.5-5-1.4-7.6c0-2.6,0.5-5.1,1.6-7.6l15-35.3
		c-1.8,0.1-3.6,0.4-5.3,0.7c-2.8,0.6-5.4,1.4-8,2.4c-2.6,1.1-5.1,2.4-7.4,4c-2.3,1.6-4.5,3.4-6.6,5.4c-2,2-3.9,4.2-5.4,6.6
		c-1.6,2.3-2.9,4.8-4,7.4c-1.1,2.6-1.9,5.3-2.4,8.1c-0.5,2.7-0.8,5.6-0.8,8.5s0.3,5.8,0.8,8.5c0.6,2.8,1.4,5.5,2.4,8.1
		c1.1,2.6,2.4,5.1,4,7.4c1.6,2.3,3.4,4.5,5.4,6.6c4,4,8.8,7.2,14,9.4c5.1,2.1,10.7,3.3,16.6,3.3c2.9,0,5.8-0.3,8.5-0.8
		c2.8-0.6,5.5-1.4,8.1-2.4c2.6-1.1,5.1-2.4,7.4-4c2.3-1.6,4.5-3.4,6.6-5.4c2-2,3.9-4.2,5.4-6.6c1.6-2.3,2.9-4.8,4-7.4
		c1.1-2.6,1.9-5.3,2.4-8.1c0.5-2.7,0.8-5.6,0.8-8.5v-0.2c0-0.2,0-0.4,0-0.7C168.5,82.2,168.5,82,168.5,81.9L168.5,81.9z M168.6,17.9
		c0.2-2,0.7-3.8,1.4-5.6v0c1-2.4,2.5-4.6,4.3-6.5c1.8-1.8,4-3.3,6.5-4.3c2.4-1,4.9-1.5,7.6-1.5c0.9,0,1.9,0.1,2.8,0.2
		c0.9,0.1,1.9,0.3,2.8,0.6c0.2,0.1,0.4,0.1,0.6,0.2c0.8,0.3,1.6,0.6,2.4,0.9c0.7,0.3,1.4,0.7,2,1.1c0.1,0,0.1,0.1,0.2,0.1l0,0v0
		l98.3,63.3c2.3,1.5,4.2,3.3,5.6,5.4c1.5,2.2,2.6,4.6,3.1,7.2c0.5,2.5,0.6,5.2,0.1,7.8c-0.5,2.5-1.4,5-2.9,7.2
		c-0.4,0.6-0.8,1.2-1.3,1.8c-0.5,0.6-1,1.1-1.5,1.7c-0.5,0.5-1,1-1.6,1.4c-0.5,0.4-1.1,0.8-1.7,1.2l-98.2,63.2
		c-2.3,1.5-4.7,2.4-7.2,2.9c-2.6,0.5-5.2,0.4-7.8-0.1c-2.5-0.6-5-1.6-7.2-3.1c-2.1-1.5-3.9-3.3-5.4-5.6c-0.6-0.9-1.1-1.8-1.5-2.8
		c-0.1-0.3-0.3-0.7-0.4-1c-1.7,1.1-3.3,2-5.1,3c-2.5,1.3-5.1,2.6-7.7,3.7c-5,2.1-10.2,3.7-15.6,4.7c-5.3,1-10.7,1.6-16.2,1.6
		c-5.5,0-10.9-0.5-16.2-1.6c-5.4-1.1-10.6-2.7-15.6-4.7c-5.1-2.1-9.9-4.7-14.5-7.7c-4.6-3.1-8.8-6.5-12.6-10.3
		c-7.7-7.7-13.9-16.8-18.1-27c-4.1-9.8-6.3-20.6-6.3-31.8c0-5.5,0.5-10.9,1.6-16.2c1.1-5.4,2.7-10.6,4.7-15.6
		c2.1-5.1,4.7-9.9,7.7-14.5c3.1-4.6,6.5-8.8,10.3-12.6c3.8-3.8,8.1-7.3,12.6-10.3c4.5-3,9.3-5.6,14.5-7.7c5-2.1,10.2-3.7,15.6-4.7
		c5.3-1,10.7-1.6,16.2-1.6c1.2,0,2.6,0,4,0.1c1.4,0.1,2.8,0.2,4.3,0.3c1.4,0.1,2.8,0.3,4.1,0.5h0c1.3,0.2,2.7,0.5,4.2,0.8
		c1.5,0.3,2.8,0.6,4.1,0.9c1.3,0.3,2.6,0.7,4,1.1c1.4,0.4,2.7,0.9,4,1.4c1.3,0.5,2.6,1,3.9,1.5c2.5,1.1,4.6,2.6,6.4,4.4
		c1.9,1.9,3.3,4.1,4.3,6.5L168.6,17.9L168.6,17.9z"/>
	<path class="st0" d="M185.5,83l0,0.2v0.1h0c0,4-0.4,7.9-1.2,11.7c-0.8,3.9-1.9,7.7-3.4,11.3c-1.5,3.7-3.4,7.2-5.6,10.4
		c-2.2,3.3-4.7,6.4-7.5,9.1c-2.8,2.8-5.8,5.3-9.1,7.5c-3.3,2.2-6.8,4.1-10.4,5.6c-3.6,1.5-7.4,2.7-11.3,3.4
		c-3.8,0.8-7.7,1.2-11.7,1.2c-8.2,0-15.9-1.6-23-4.6c-7.4-3.1-14-7.5-19.6-13.1c-2.8-2.8-5.3-5.8-7.5-9.1c-2.2-3.3-4.1-6.8-5.6-10.4
		c-1.5-3.6-2.7-7.4-3.4-11.3c-0.8-3.8-1.2-7.7-1.2-11.7c0-4,0.4-7.9,1.2-11.7c0.8-3.9,1.9-7.7,3.4-11.3c1.5-3.7,3.4-7.2,5.6-10.4
		c2.2-3.3,4.7-6.4,7.5-9.1c2.8-2.8,5.8-5.3,9.1-7.5c3.3-2.2,6.8-4.1,10.4-5.6c3.6-1.5,7.4-2.7,11.3-3.4c3.8-0.8,7.7-1.2,11.7-1.2
		c0.9,0,1.9,0,3,0.1c1,0.1,2.1,0.1,3.1,0.2l0.1,0c1,0.1,2,0.2,2.9,0.4c0.9,0.1,1.9,0.3,2.9,0.5c0.3,0.1,0.7,0.1,1,0.2
		c0.3,0.1,0.6,0.1,0.8,0.2c0.2,0,0.4,0.1,0.6,0.1c0.2,0.1,0.4,0.1,0.6,0.2c1.5,0.6,2.6,1.8,3.2,3.3c0.6,1.4,0.6,3.1,0,4.6l-21,49.3
		c-0.2,0.4-0.2,0.8-0.2,1.1c0,0.4,0.1,0.8,0.2,1.2c0.1,0.4,0.4,0.7,0.6,1c0.3,0.3,0.6,0.5,1,0.7c0.4,0.2,0.8,0.2,1.1,0.2
		c0.4,0,0.8-0.1,1.2-0.2c0.4-0.1,0.7-0.4,1-0.6c0.3-0.3,0.5-0.6,0.7-1l24.8-58.2c0.2-0.4,0.2-0.8,0.2-1.1c0-0.4-0.1-0.8-0.2-1.2
		c-0.1-0.4-0.4-0.7-0.6-1c-0.3-0.3-0.6-0.5-1-0.7c-1-0.4-2-0.8-3.1-1.2c-1.1-0.4-2.1-0.7-3.1-1.1c-1.1-0.3-2.2-0.7-3.2-0.9
		c-1.1-0.3-2.1-0.5-3.3-0.7c-1-0.2-2.1-0.4-3.3-0.6c-1.2-0.2-2.3-0.3-3.3-0.4c-1.1-0.1-2.2-0.2-3.2-0.2c-1-0.1-2.1-0.1-3.3-0.1
		c-4.5,0-8.8,0.4-13,1.3c-4.3,0.9-8.5,2.1-12.4,3.7c-4,1.7-7.8,3.7-11.4,6.1c-3.6,2.4-7,5.2-10.1,8.3c-3.1,3.1-5.9,6.5-8.3,10.1
		c-2.4,3.6-4.5,7.4-6.1,11.4c-1.6,3.9-2.9,8.1-3.7,12.4c-0.8,4.2-1.3,8.5-1.3,13c0,9,1.8,17.5,5,25.3c3.4,8.1,8.3,15.4,14.4,21.5
		c3.1,3.1,6.5,5.9,10.1,8.3c3.6,2.4,7.4,4.5,11.4,6.1c3.9,1.6,8.1,2.9,12.4,3.7c4.2,0.8,8.5,1.3,13,1.3c4.5,0,8.8-0.4,13-1.3
		c4.3-0.9,8.5-2.1,12.4-3.7c4-1.7,7.8-3.7,11.4-6.1c3.6-2.4,7-5.2,10.1-8.3l0.9-0.9c0.2-0.2,0.5-0.5,0.6-0.7l0.6-0.7l0.8-0.9
		c0.5-0.6,1.2-1.2,2-1.5c0.8-0.4,1.7-0.6,2.6-0.6c1.7,0,3.2,0.7,4.2,1.8l0.1,0.1c1,1.1,1.6,2.5,1.6,4.1v15c0,0.1,0,0.2,0,0.3l0,0
		c0,0.2,0,0.4,0,0.5c0,0.2,0,0.3,0.1,0.5c0,0.1,0.1,0.3,0.2,0.4l0,0.1c0,0.1,0.1,0.2,0.2,0.3c0.2,0.3,0.5,0.6,0.8,0.8
		c0.3,0.2,0.7,0.4,1.1,0.5c0.4,0.1,0.8,0.1,1.2,0c0.4-0.1,0.7-0.2,1.1-0.4l98.2-63.2l0.1-0.1c0.1-0.1,0.2-0.1,0.3-0.2
		c0.1-0.1,0.2-0.1,0.2-0.2c0.1-0.1,0.1-0.2,0.2-0.2c0.1-0.1,0.1-0.2,0.2-0.3c0.2-0.3,0.4-0.7,0.4-1.1c0.1-0.4,0.1-0.8,0-1.2
		c-0.1-0.4-0.2-0.7-0.5-1.1c-0.2-0.3-0.5-0.6-0.8-0.8l-97.9-63l-0.1-0.1l-0.2-0.1v0c-0.1-0.1-0.3-0.2-0.3-0.2l0,0v0
		c-0.1-0.1-0.2-0.1-0.3-0.1l-0.1,0v0c-0.1,0-0.2-0.1-0.4-0.1c-0.1,0-0.3,0-0.5,0c-0.4,0-0.8,0.1-1.1,0.2c-0.3,0.1-0.7,0.4-1,0.6
		l-0.1,0.1c-0.2,0.3-0.4,0.6-0.6,0.9c-0.1,0.3-0.2,0.7-0.2,1.1c0,0.1,0,0.2,0,0.3v61.7c0,0.2,0,0.3,0,0.5
		C185.5,82.6,185.5,82.8,185.5,83L185.5,83z M181.5,82.7c0-0.1,0-0.2,0-0.3l0-0.2h0l0-0.2v-62l0-0.2c0-0.1,0-0.2,0-0.3
		c0-0.8,0.2-1.6,0.5-2.4c0.3-0.8,0.8-1.5,1.4-2.1l0.1-0.1c0.6-0.6,1.4-1.1,2.3-1.5c0.8-0.3,1.7-0.5,2.7-0.5c0.3,0,0.6,0,1,0.1
		c0.3,0,0.7,0.1,1,0.2v0l0.2,0c0.3,0.1,0.6,0.2,0.8,0.3v0c0.3,0.1,0.6,0.3,0.8,0.4v0l0.1,0.1c0.1,0,0.1,0.1,0.2,0.1l98,63.1
		c0.8,0.5,1.5,1.2,2,1.9c0.5,0.8,0.9,1.6,1.1,2.5s0.2,1.8,0.1,2.7c-0.2,0.9-0.5,1.7-1,2.5c-0.1,0.2-0.3,0.4-0.5,0.6
		c-0.2,0.2-0.3,0.4-0.5,0.6c-0.2,0.2-0.4,0.3-0.6,0.5c-0.2,0.2-0.4,0.3-0.6,0.4l-98.2,63.2c-0.8,0.5-1.7,0.8-2.5,1
		c-0.9,0.2-1.8,0.1-2.7-0.1s-1.7-0.6-2.5-1.1c-0.7-0.5-1.4-1.2-1.9-2c-0.2-0.2-0.3-0.5-0.4-0.8c0-0.1-0.1-0.1-0.1-0.2
		c-0.1-0.3-0.3-0.7-0.4-1c-0.1-0.4-0.2-0.7-0.2-1.1s0-0.7,0-1.1V146c0-0.1,0-0.1,0-0.2V131c0-0.5-0.2-1-0.5-1.3l-0.1-0.1
		c-0.4-0.4-0.9-0.6-1.4-0.6c-0.3,0-0.6,0.1-0.9,0.2c-0.2,0.1-0.5,0.3-0.6,0.5l-0.1,0.1l-1.4,1.6c-0.2,0.2-0.4,0.4-0.7,0.7l-0.9,0.9
		c-3.2,3.2-6.8,6.2-10.7,8.8c-3.8,2.5-7.9,4.7-12.1,6.5c-4.2,1.7-8.6,3.1-13.1,4c-4.4,0.9-9,1.3-13.7,1.3c-4.7,0-9.3-0.5-13.7-1.3
		c-4.5-0.9-8.9-2.2-13.1-4c-4.3-1.8-8.3-3.9-12.1-6.5c-3.9-2.6-7.4-5.5-10.7-8.8c-6.5-6.5-11.7-14.2-15.3-22.8
		c-3.4-8.3-5.3-17.4-5.3-26.9c0-4.7,0.5-9.3,1.3-13.7c0.9-4.5,2.2-8.9,4-13.1c1.8-4.3,3.9-8.3,6.5-12.1c2.6-3.9,5.5-7.4,8.8-10.7
		c3.2-3.2,6.8-6.2,10.7-8.8c3.8-2.5,7.9-4.7,12.1-6.5c4.2-1.7,8.6-3.1,13.1-4c4.4-0.9,9-1.3,13.7-1.3c1.1,0,2.3,0,3.5,0.1
		c1.2,0.1,2.3,0.1,3.5,0.3c1.2,0.1,2.4,0.3,3.5,0.4c1.1,0.2,2.3,0.4,3.5,0.6c1.1,0.2,2.3,0.5,3.4,0.8c1.2,0.3,2.3,0.6,3.4,1
		c1.2,0.4,2.3,0.7,3.3,1.1c1.1,0.4,2.2,0.8,3.3,1.3c0.9,0.4,1.6,0.9,2.2,1.5c0.6,0.7,1.2,1.4,1.5,2.3c0.3,0.8,0.5,1.7,0.5,2.7
		c0,0.9-0.2,1.8-0.6,2.7L131.6,86c-0.4,0.9-0.9,1.6-1.5,2.2c-0.7,0.6-1.4,1.2-2.3,1.5c-0.8,0.3-1.7,0.5-2.7,0.5
		c-0.9,0-1.8-0.2-2.7-0.6c-0.9-0.4-1.6-0.9-2.2-1.5c-0.6-0.7-1.2-1.4-1.5-2.3c-0.3-0.8-0.5-1.7-0.5-2.7c0-0.9,0.2-1.8,0.6-2.7
		l21-49.3c0.2-0.5,0.2-1.1,0-1.5c-0.2-0.5-0.6-0.9-1.1-1.1c-0.1,0-0.2-0.1-0.2-0.1c-0.3-0.1-0.6-0.1-1-0.2l-0.1,0
		c-0.3-0.1-0.6-0.2-1-0.2c-0.8-0.2-1.8-0.3-2.7-0.5c-0.9-0.1-1.8-0.3-2.7-0.3c-0.1,0-0.1,0-0.2,0c-0.9-0.1-1.9-0.2-2.8-0.2
		c-0.9,0-1.8-0.1-2.8-0.1c-3.8,0-7.4,0.4-11,1.1c-3.7,0.7-7.2,1.8-10.5,3.2c-3.4,1.4-6.7,3.2-9.7,5.2c-3.1,2-5.9,4.4-8.5,7
		c-2.6,2.6-5,5.5-7,8.5c-2,3-3.8,6.3-5.2,9.7c-1.4,3.4-2.5,6.9-3.2,10.5c-0.7,3.5-1.1,7.2-1.1,11s0.4,7.4,1.1,11
		c0.7,3.7,1.8,7.2,3.2,10.5c1.4,3.4,3.2,6.7,5.2,9.7c2,3.1,4.4,5.9,7,8.5c5.2,5.2,11.4,9.4,18.3,12.2c6.6,2.7,13.9,4.3,21.5,4.3
		c3.8,0,7.4-0.4,11-1.1c3.7-0.7,7.2-1.8,10.5-3.2c3.4-1.4,6.7-3.2,9.7-5.2c3.1-2,5.9-4.4,8.5-7c2.6-2.6,5-5.5,7-8.5
		c2-3,3.8-6.3,5.2-9.7c1.4-3.4,2.5-6.9,3.2-10.5c0.7-3.5,1.1-7.2,1.1-11h0v-0.2C181.4,83,181.5,82.9,181.5,82.7L181.5,82.7z
		 M191.4,83.1l0-0.1c0-0.1,0-0.2,0-0.3l0-0.2V36.7c0-0.6,0-1.1,0.2-1.7c0.2-0.6,0.4-1.2,0.8-1.7c0.9-1.4,2.3-2.3,3.8-2.6
		c1.5-0.3,3.1-0.1,4.5,0.8l72.7,46.8c0.4,0.2,0.7,0.5,1,0.8c0.3,0.3,0.6,0.7,0.8,1c0.9,1.4,1.1,3,0.8,4.5s-1.2,2.9-2.6,3.8
		l-72.7,46.8c-0.1,0-0.1,0.1-0.2,0.1c-0.4,0.3-0.9,0.5-1.4,0.6l-0.1,0c-0.5,0.1-1,0.2-1.6,0.2c-1.7,0-3.1-0.7-4.2-1.8l-0.1-0.1
		c-1-1.1-1.6-2.5-1.6-4.1V85.6c0-0.5,0-1,0-1.5c0-0.2,0-0.7,0-0.9L191.4,83.1L191.4,83.1z M195.4,82.6c0,0.1,0,0.2,0,0.3
		c0,0.1,0,0.2,0,0.2c0,0.8,0,1.6,0,2.4l0,0.2v44.5c0,0.5,0.2,1,0.5,1.3l0.1,0.1c0.4,0.4,0.9,0.6,1.4,0.6c0.2,0,0.4,0,0.5-0.1l0.1,0
		c0.2,0,0.3-0.1,0.4-0.2l0,0c0.1,0,0.1-0.1,0.2-0.1L271.2,85c0.5-0.3,0.8-0.8,0.9-1.2c0.1-0.5,0-1-0.3-1.5c-0.1-0.1-0.2-0.3-0.3-0.4
		c-0.1-0.1-0.2-0.2-0.3-0.3l-72.7-46.8c-0.5-0.3-1-0.4-1.5-0.3c-0.5,0.1-1,0.4-1.2,0.9c-0.1,0.2-0.2,0.4-0.3,0.6
		c0,0.2-0.1,0.3-0.1,0.5c0,0.1,0,0.1,0,0.2L195.4,82.6C195.4,82.6,195.4,82.5,195.4,82.6L195.4,82.6z"/>
	<path class="st0" d="M160,225.2V199c0-2,1.6-3.5,3.5-3.5c0.8,0,1.5,0.3,2.1,0.7l20.2,13c1.6,1.1,2.1,3.2,1.1,4.9
		c-0.3,0.5-0.7,0.8-1.1,1.1l-20.3,13.1c-1.6,1.1-3.8,0.6-4.9-1.1C160.2,226.5,160,225.8,160,225.2L160,225.2L160,225.2z
		 M167.1,212.1v6.6l10.3-6.6l-10.3-6.6V212.1z"/>
	<path class="st0" d="M23.1,196.2c1.8,0.8,2.6,2.8,1.9,4.6l-5.1,12c-0.8,1.8-2.8,2.6-4.6,1.9c-1.8-0.8-2.6-2.8-1.9-4.6l3.5-8.2h-0.2
		c-2.6,0-5,1.1-6.8,2.8c-1.7,1.7-2.8,4.1-2.8,6.8c0,2.6,1.1,5,2.8,6.8c1.7,1.7,4.1,2.8,6.8,2.8c2.6,0,5-1.1,6.8-2.8
		c1.7-1.7,2.8-4.1,2.8-6.8c0-2,1.6-3.5,3.5-3.5s3.5,1.6,3.5,3.5c0,4.6-1.9,8.8-4.9,11.8c-3,3-7.2,4.9-11.8,4.9s-8.8-1.9-11.8-4.9
		c-3-3-4.9-7.2-4.9-11.8s1.9-8.8,4.9-11.8c3-3,7.2-4.9,11.8-4.9c1.1,0,2.2,0.1,3.3,0.3C21.1,195.5,22.1,195.8,23.1,196.2z"/>
	<text transform="matrix(1 0 0 1 35.5615 227.5913)" class="st0 st1 st2">lyjar</text>
	<text transform="matrix(1 0 0 1 187.6992 227.7607)" class="st0 st1 st2">esigns</text>
</g>
</svg>
